<mxfile host="app.diagrams.net" modified="2023-04-19T14:08:41.369Z" agent="Mozilla/5.0 (Windows NT 10.0; Win64; x64) AppleWebKit/537.36 (KHTML, like Gecko) Chrome/112.0.0.0 Safari/537.36" etag="AmyG3G8goZb07VluOf1r" version="21.1.4" type="device">
  <diagram name="PÃ¡gina-1" id="_MM4CuDdHeF5AsdCIXDM">
    <mxGraphModel dx="2041" dy="677" grid="1" gridSize="10" guides="1" tooltips="1" connect="1" arrows="1" fold="1" page="1" pageScale="1" pageWidth="827" pageHeight="1169" math="0" shadow="0">
      <root>
        <mxCell id="0" />
        <mxCell id="1" parent="0" />
        <mxCell id="_Pth_uzyNn0c3MhcJYZ4-1" value="Produtos" style="rounded=0;whiteSpace=wrap;html=1;" vertex="1" parent="1">
          <mxGeometry x="-10" y="80" width="120" height="60" as="geometry" />
        </mxCell>
        <mxCell id="_Pth_uzyNn0c3MhcJYZ4-2" value="Vendas" style="rounded=0;whiteSpace=wrap;html=1;" vertex="1" parent="1">
          <mxGeometry x="330" y="80" width="120" height="60" as="geometry" />
        </mxCell>
        <mxCell id="_Pth_uzyNn0c3MhcJYZ4-3" value="Vendedor" style="rounded=0;whiteSpace=wrap;html=1;" vertex="1" parent="1">
          <mxGeometry x="660" y="80" width="120" height="60" as="geometry" />
        </mxCell>
        <mxCell id="_Pth_uzyNn0c3MhcJYZ4-4" value="data/hora" style="ellipse;whiteSpace=wrap;html=1;rotation=30;" vertex="1" parent="1">
          <mxGeometry x="210" y="240" width="120" height="80" as="geometry" />
        </mxCell>
        <mxCell id="_Pth_uzyNn0c3MhcJYZ4-6" value="id_produto" style="ellipse;whiteSpace=wrap;html=1;rotation=30;fontStyle=4" vertex="1" parent="1">
          <mxGeometry x="-110" y="180" width="120" height="80" as="geometry" />
        </mxCell>
        <mxCell id="_Pth_uzyNn0c3MhcJYZ4-7" value="" style="endArrow=none;html=1;rounded=0;entryX=0.25;entryY=1;entryDx=0;entryDy=0;" edge="1" parent="1" target="_Pth_uzyNn0c3MhcJYZ4-1">
          <mxGeometry width="50" height="50" relative="1" as="geometry">
            <mxPoint x="-10" y="200" as="sourcePoint" />
            <mxPoint x="40" y="180" as="targetPoint" />
          </mxGeometry>
        </mxCell>
        <mxCell id="_Pth_uzyNn0c3MhcJYZ4-10" value="" style="endArrow=none;html=1;rounded=0;exitX=0.5;exitY=0;exitDx=0;exitDy=0;entryX=0.5;entryY=1;entryDx=0;entryDy=0;" edge="1" parent="1" source="_Pth_uzyNn0c3MhcJYZ4-22" target="_Pth_uzyNn0c3MhcJYZ4-1">
          <mxGeometry width="50" height="50" relative="1" as="geometry">
            <mxPoint x="110" y="280" as="sourcePoint" />
            <mxPoint x="100" y="140" as="targetPoint" />
          </mxGeometry>
        </mxCell>
        <mxCell id="_Pth_uzyNn0c3MhcJYZ4-11" value="produto_id" style="ellipse;whiteSpace=wrap;html=1;fontStyle=4;rotation=-15;" vertex="1" parent="1">
          <mxGeometry x="440" y="250.00000000000003" width="120.17" height="80" as="geometry" />
        </mxCell>
        <mxCell id="_Pth_uzyNn0c3MhcJYZ4-12" value="" style="endArrow=none;html=1;rounded=0;exitX=1;exitY=0.5;exitDx=0;exitDy=0;entryX=0;entryY=0.5;entryDx=0;entryDy=0;" edge="1" parent="1" source="_Pth_uzyNn0c3MhcJYZ4-1" target="_Pth_uzyNn0c3MhcJYZ4-2">
          <mxGeometry width="50" height="50" relative="1" as="geometry">
            <mxPoint x="230" y="109.5" as="sourcePoint" />
            <mxPoint x="320" y="110" as="targetPoint" />
          </mxGeometry>
        </mxCell>
        <mxCell id="_Pth_uzyNn0c3MhcJYZ4-14" value="" style="endArrow=none;html=1;rounded=0;exitX=1;exitY=0.5;exitDx=0;exitDy=0;entryX=0;entryY=0.5;entryDx=0;entryDy=0;" edge="1" parent="1" source="_Pth_uzyNn0c3MhcJYZ4-2" target="_Pth_uzyNn0c3MhcJYZ4-3">
          <mxGeometry width="50" height="50" relative="1" as="geometry">
            <mxPoint x="460" y="110" as="sourcePoint" />
            <mxPoint x="650" y="109.5" as="targetPoint" />
          </mxGeometry>
        </mxCell>
        <mxCell id="_Pth_uzyNn0c3MhcJYZ4-18" value="vendedor_id" style="ellipse;whiteSpace=wrap;html=1;rotation=0;fontStyle=4" vertex="1" parent="1">
          <mxGeometry x="320" y="280" width="120" height="80" as="geometry" />
        </mxCell>
        <mxCell id="_Pth_uzyNn0c3MhcJYZ4-19" value="" style="endArrow=none;html=1;rounded=0;entryX=0.5;entryY=1;entryDx=0;entryDy=0;exitX=0.5;exitY=0;exitDx=0;exitDy=0;" edge="1" parent="1" source="_Pth_uzyNn0c3MhcJYZ4-18" target="_Pth_uzyNn0c3MhcJYZ4-2">
          <mxGeometry width="50" height="50" relative="1" as="geometry">
            <mxPoint x="400" y="270" as="sourcePoint" />
            <mxPoint x="440" y="220" as="targetPoint" />
          </mxGeometry>
        </mxCell>
        <mxCell id="_Pth_uzyNn0c3MhcJYZ4-21" value="valor&lt;br&gt;" style="ellipse;whiteSpace=wrap;html=1;rotation=-15;" vertex="1" parent="1">
          <mxGeometry x="90" y="200" width="120" height="80" as="geometry" />
        </mxCell>
        <mxCell id="_Pth_uzyNn0c3MhcJYZ4-22" value="produto" style="ellipse;whiteSpace=wrap;html=1;" vertex="1" parent="1">
          <mxGeometry x="-10" y="280" width="120" height="80" as="geometry" />
        </mxCell>
        <mxCell id="_Pth_uzyNn0c3MhcJYZ4-24" value="" style="endArrow=none;html=1;rounded=0;exitX=0.75;exitY=1;exitDx=0;exitDy=0;" edge="1" parent="1" source="_Pth_uzyNn0c3MhcJYZ4-1">
          <mxGeometry width="50" height="50" relative="1" as="geometry">
            <mxPoint x="100" y="200" as="sourcePoint" />
            <mxPoint x="130" y="210" as="targetPoint" />
          </mxGeometry>
        </mxCell>
        <mxCell id="_Pth_uzyNn0c3MhcJYZ4-25" value="" style="endArrow=none;html=1;rounded=0;exitX=0.406;exitY=0.004;exitDx=0;exitDy=0;exitPerimeter=0;" edge="1" parent="1" source="_Pth_uzyNn0c3MhcJYZ4-4">
          <mxGeometry width="50" height="50" relative="1" as="geometry">
            <mxPoint x="350" y="190" as="sourcePoint" />
            <mxPoint x="390" y="140" as="targetPoint" />
          </mxGeometry>
        </mxCell>
        <mxCell id="_Pth_uzyNn0c3MhcJYZ4-26" value="" style="endArrow=none;html=1;rounded=0;exitX=0.5;exitY=1;exitDx=0;exitDy=0;entryX=0.292;entryY=0.058;entryDx=0;entryDy=0;entryPerimeter=0;" edge="1" parent="1" source="_Pth_uzyNn0c3MhcJYZ4-2" target="_Pth_uzyNn0c3MhcJYZ4-11">
          <mxGeometry width="50" height="50" relative="1" as="geometry">
            <mxPoint x="400" y="150" as="sourcePoint" />
            <mxPoint x="490" y="270" as="targetPoint" />
          </mxGeometry>
        </mxCell>
        <mxCell id="_Pth_uzyNn0c3MhcJYZ4-27" value="matricula" style="ellipse;whiteSpace=wrap;html=1;rotation=-15;" vertex="1" parent="1">
          <mxGeometry x="750" y="220" width="120" height="80" as="geometry" />
        </mxCell>
        <mxCell id="_Pth_uzyNn0c3MhcJYZ4-28" value="id" style="ellipse;whiteSpace=wrap;html=1;rotation=30;fontStyle=4" vertex="1" parent="1">
          <mxGeometry x="560" y="210" width="120" height="80" as="geometry" />
        </mxCell>
        <mxCell id="_Pth_uzyNn0c3MhcJYZ4-29" value="nome" style="ellipse;whiteSpace=wrap;html=1;" vertex="1" parent="1">
          <mxGeometry x="650" y="290" width="120" height="80" as="geometry" />
        </mxCell>
        <mxCell id="_Pth_uzyNn0c3MhcJYZ4-30" value="" style="endArrow=none;html=1;rounded=0;exitX=0.439;exitY=0.024;exitDx=0;exitDy=0;exitPerimeter=0;" edge="1" parent="1" source="_Pth_uzyNn0c3MhcJYZ4-27">
          <mxGeometry width="50" height="50" relative="1" as="geometry">
            <mxPoint x="790" y="220" as="sourcePoint" />
            <mxPoint x="720" y="140" as="targetPoint" />
          </mxGeometry>
        </mxCell>
        <mxCell id="_Pth_uzyNn0c3MhcJYZ4-31" value="" style="endArrow=none;html=1;rounded=0;" edge="1" parent="1">
          <mxGeometry width="50" height="50" relative="1" as="geometry">
            <mxPoint x="650" y="220" as="sourcePoint" />
            <mxPoint x="720" y="140" as="targetPoint" />
          </mxGeometry>
        </mxCell>
        <mxCell id="_Pth_uzyNn0c3MhcJYZ4-32" value="" style="endArrow=none;html=1;rounded=0;" edge="1" parent="1">
          <mxGeometry width="50" height="50" relative="1" as="geometry">
            <mxPoint x="720" y="290" as="sourcePoint" />
            <mxPoint x="719.5" y="140" as="targetPoint" />
          </mxGeometry>
        </mxCell>
      </root>
    </mxGraphModel>
  </diagram>
</mxfile>
